<?xml version="1.0" standalone="no"?>
<!DOCTYPE svg PUBLIC "-//W3C//DTD SVG 20010904//EN"
 "http://www.w3.org/TR/2001/REC-SVG-20010904/DTD/svg10.dtd">
<svg version="1.0" xmlns="http://www.w3.org/2000/svg"
 width="1920.000000pt" height="1920.000000pt" viewBox="0 0 1920.000000 1920.000000"
 preserveAspectRatio="xMidYMid meet">

<g transform="translate(0.000000,1920.000000) scale(0.100000,-0.100000)"
fill="#000000" stroke="none">
<path d="M9665 14373 c-4 -10 -33 -92 -66 -183 -85 -237 -76 -218 -123 -230
-312 -79 -472 -180 -706 -447 -33 -38 -42 -41 -182 -77 -81 -21 -149 -44 -151
-50 -2 -6 -2 -26 0 -43 l5 -33 204 0 204 0 0 -585 0 -585 -220 0 c-121 0 -220
-3 -220 -7 0 -11 90 -161 103 -171 7 -5 37 -13 67 -17 86 -11 159 -43 205 -89
58 -59 69 -104 56 -236 -6 -58 -20 -217 -31 -355 -11 -137 -27 -320 -35 -405
-8 -85 -21 -236 -30 -335 -8 -99 -22 -252 -30 -340 -8 -88 -24 -266 -36 -395
-11 -129 -36 -408 -55 -620 -19 -212 -45 -513 -59 -670 -14 -157 -31 -359 -40
-450 -8 -91 -19 -221 -25 -290 -6 -69 -17 -197 -26 -285 -24 -269 -63 -707
-84 -955 -28 -333 -50 -562 -55 -580 -3 -8 -80 -50 -172 -92 -93 -43 -247
-114 -343 -159 -607 -281 -968 -379 -1287 -349 -289 27 -555 138 -834 348 -53
39 -100 72 -103 72 -16 0 -1 -35 50 -116 295 -471 699 -766 1149 -839 116 -19
333 -19 478 0 349 46 657 138 1377 415 873 335 1234 440 1781 516 176 25 221
28 494 28 328 0 461 -13 765 -74 567 -113 1160 -376 1759 -778 147 -99 187
-118 145 -69 -339 386 -741 717 -1169 963 -401 229 -878 410 -1310 494 -60 12
-114 25 -118 30 -5 4 -15 81 -23 171 -7 90 -18 214 -24 274 -5 61 -19 223 -31
360 -11 138 -25 254 -30 259 -10 11 -15 10 -404 -116 -170 -55 -380 -123 -465
-150 -85 -27 -193 -63 -240 -78 -47 -16 -240 -79 -430 -140 -190 -62 -387
-126 -438 -142 -51 -17 -95 -28 -98 -25 -3 3 0 67 6 143 6 77 15 189 20 249
17 201 30 359 40 470 5 61 14 171 21 245 6 74 15 142 19 150 5 8 28 21 52 28
23 7 124 39 223 72 99 32 335 109 525 170 580 188 861 280 960 314 l95 32 -2
109 c-1 61 -7 153 -12 205 -6 52 -22 230 -36 395 -14 165 -29 345 -35 400 -5
55 -10 108 -10 119 0 23 -25 19 -125 -17 -38 -14 -225 -76 -415 -137 -190 -62
-397 -129 -460 -150 -408 -134 -623 -201 -634 -197 -8 3 -12 16 -10 29 2 13 8
82 14 153 13 164 35 408 60 665 5 52 14 158 20 235 6 77 13 150 16 162 3 19
39 33 272 108 147 48 292 95 322 105 60 20 725 235 777 251 50 16 53 25 43
130 -31 312 -41 443 -43 510 -1 69 2 82 29 125 42 68 116 111 221 126 l80 12
46 75 c25 42 47 83 49 91 3 13 -28 16 -212 20 l-215 5 -5 35 c-3 19 -4 281 -2
583 l3 547 204 0 205 0 0 45 c0 25 -3 45 -6 45 -14 0 -281 73 -296 81 -10 5
-30 28 -47 52 -81 116 -234 243 -391 322 -81 41 -265 105 -301 105 -28 0 -42
27 -115 228 -39 108 -75 197 -81 199 -6 2 -14 -4 -18 -14z m550 -1648 l0 -580
-535 0 -535 0 -3 570 c-1 314 0 576 3 583 3 10 116 12 537 10 l533 -3 0 -580z"/>
</g>
</svg>
